<svg width="30" height="29" viewBox="0 0 30 29" fill="none" xmlns="http://www.w3.org/2000/svg">
<path d="M26.7193 12.1269H25.7606V12.0775H15.0494V16.8381H21.7754C20.7942 19.6093 18.1574 21.5986 15.0494 21.5986C11.1058 21.5986 7.90851 18.4013 7.90851 14.4578C7.90851 10.5143 11.1058 7.31696 15.0494 7.31696C16.8697 7.31696 18.5258 8.00367 19.7867 9.12538L23.153 5.75907C21.0274 3.77808 18.1842 2.5564 15.0494 2.5564C8.4768 2.5564 3.14795 7.88525 3.14795 14.4578C3.14795 21.0304 8.4768 26.3592 15.0494 26.3592C21.6219 26.3592 26.9508 21.0304 26.9508 14.4578C26.9508 13.6598 26.8686 12.8809 26.7193 12.1269Z" fill="#F59E0B"/>
<path d="M4.52026 8.91829L8.43047 11.7859C9.48851 9.16644 12.0509 7.31696 15.0494 7.31696C16.8698 7.31696 18.5258 8.00367 19.7868 9.12538L23.1531 5.75907C21.0275 3.77808 18.1843 2.5564 15.0494 2.5564C10.4781 2.5564 6.51375 5.13722 4.52026 8.91829Z" fill="#DD4A44"/>
<path d="M15.0493 26.3592C18.1235 26.3592 20.9167 25.1827 23.0286 23.2696L19.3451 20.1526C18.1101 21.0918 16.601 21.5998 15.0493 21.5986C11.9538 21.5986 9.32535 19.6248 8.33515 16.8702L4.4541 19.8604C6.42378 23.7147 10.4238 26.3592 15.0493 26.3592Z" fill="#40CE92"/>
<path d="M26.7192 12.1269H25.7606V12.0775H15.0493V16.8381H21.7754C21.306 18.157 20.4605 19.3095 19.3433 20.1532L19.3451 20.152L23.0286 23.269C22.768 23.5058 26.9507 20.4085 26.9507 14.4578C26.9507 13.6598 26.8686 12.8809 26.7192 12.1269Z" fill="#1BA4F3"/>
</svg>
