<svg width="56" height="32" viewBox="0 0 56 32" fill="none" xmlns="http://www.w3.org/2000/svg">
<path d="M7.77653 18.6816V14.2123H14.6592V24.1341C14.6592 29.1397 12.1564 32 7.32961 32C2.50279 32 0 29.1397 0 24.1341V7.86592C0 2.86033 2.50279 0 7.32961 0C12.1564 0 14.6592 2.86033 14.6592 7.86592V10.905H10.0112V7.55307C10.0112 5.31843 9.02793 4.46927 7.46369 4.46927C5.89944 4.46927 4.9162 5.31843 4.9162 7.55307V24.4469C4.9162 26.6816 5.89944 27.486 7.46369 27.486C9.02793 27.486 10.0112 26.6816 10.0112 24.4469V18.6816H7.77653Z" fill="#E60023"/>
<path d="M21.7654 31.6425V21.2737L15.5531 0.35754H20.6927L24.4469 14.6145L28.2011 0.35754H32.8939L26.6816 21.2737V31.6425H21.7654Z" fill="#E60023"/>
<path d="M41.6753 0.35754L45.2954 22.5698L48.6473 0.35754H55.4853V31.6425H50.8373V9.2067L47.4406 31.6425H42.7926L39.1278 9.51955V31.6425H34.8373V0.35754H41.6753Z" fill="#E60023"/>
</svg>
