<?xml version="1.0" standalone="no"?>
<!DOCTYPE svg PUBLIC "-//W3C//DTD SVG 20010904//EN"
 "http://www.w3.org/TR/2001/REC-SVG-20010904/DTD/svg10.dtd">
<svg version="1.0" xmlns="http://www.w3.org/2000/svg"
 width="524.000000pt" height="372.000000pt" viewBox="0 0 524.000000 372.000000"
 preserveAspectRatio="xMidYMid meet">

<g transform="translate(0.000000,372.000000) scale(0.100000,-0.100000)"
fill="#000000" stroke="none">
<path d="M0 1860 l0 -1860 2620 0 2620 0 0 1860 0 1860 -2620 0 -2620 0 0
-1860z m3034 839 c234 -143 426 -264 426 -267 -1 -43 -25 -31 -427 216 -225
138 -416 254 -424 257 -8 3 -68 -27 -134 -68 -66 -40 -254 -155 -418 -256
-163 -100 -302 -179 -308 -176 -5 4 -9 13 -7 22 3 14 832 531 855 532 6 1 203
-116 437 -260z m-424 51 c0 -32 -4 -62 -10 -65 -6 -4 -10 20 -10 65 0 45 4 69
10 65 6 -3 10 -33 10 -65z m176 -62 c-9 -29 -23 -64 -32 -78 l-15 -25 5 33 c6
38 47 135 53 128 3 -2 -2 -28 -11 -58z m-340 -36 c9 -30 14 -56 11 -58 -6 -6
-42 81 -51 121 -6 29 -6 29 9 10 9 -11 23 -44 31 -73z m-120 -84 c29 -58 30
-71 3 -38 -22 28 -69 115 -69 127 1 14 42 -41 66 -89z m599 55 c-15 -35 -61
-103 -70 -103 -8 0 19 54 48 98 35 52 42 54 22 5z m-725 -149 c38 -40 29 -38
-37 9 -23 16 -44 36 -47 43 -9 24 44 -9 84 -52z m862 33 c-37 -38 -92 -73 -92
-58 0 11 100 91 114 91 6 0 -4 -15 -22 -33z m-987 -108 c33 -12 54 -24 47 -27
-15 -5 -140 33 -162 49 -24 17 46 4 115 -22z m1165 21 c-19 -13 -137 -50 -158
-50 -25 0 -7 11 60 36 66 24 127 33 98 14z m-1105 -160 c4 -6 -23 -10 -74 -10
-47 0 -81 4 -81 10 0 6 31 10 74 10 41 0 78 -4 81 -10z m1085 0 c0 -6 -36 -10
-87 -10 -61 0 -83 3 -73 10 20 13 160 13 160 0z m-971 -77 c16 -58 15 -61 -36
-68 -126 -17 -301 -47 -380 -65 -83 -18 -89 -18 -101 -2 -18 24 -26 62 -15 73
12 12 264 65 398 82 61 8 113 15 117 16 4 1 12 -16 17 -36z m946 1 c223 -37
289 -55 293 -80 2 -11 -6 -32 -17 -46 l-21 -26 -85 19 c-77 17 -255 47 -377
64 -51 7 -53 10 -38 67 12 42 -1 42 245 2z m-1010 -153 c-15 -14 -131 -51
-157 -50 -20 1 -18 3 11 15 32 14 125 42 146 43 6 1 6 -2 0 -8z m923 -17 c59
-16 90 -34 59 -34 -26 0 -146 40 -153 51 -4 7 0 9 12 6 11 -3 47 -13 82 -23z
m-1896 -129 c16 -43 16 -44 -3 -50 -23 -8 -59 19 -59 42 0 22 19 53 33 53 7 0
20 -20 29 -45z m984 10 c-22 -19 -55 -44 -75 -56 l-36 -21 25 27 c32 35 100
85 114 85 6 -1 -7 -16 -28 -35z m830 6 c42 -31 82 -71 69 -71 -10 0 -99 66
-115 85 -20 24 4 17 46 -14z m1008 13 c21 -20 20 -37 -2 -64 -13 -16 -24 -21
-39 -16 -21 7 -21 8 -5 51 18 49 23 53 46 29z m-1723 -118 c-29 -50 -61 -88
-61 -72 0 22 83 150 88 136 2 -5 -10 -34 -27 -64z m592 16 c13 -21 28 -50 35
-66 12 -27 12 -28 -3 -16 -17 15 -75 109 -75 123 0 15 21 -5 43 -41z m-458
-70 c-16 -52 -35 -78 -35 -45 0 22 39 108 45 101 3 -2 -2 -28 -10 -56z m330
-3 c9 -28 15 -53 12 -56 -8 -7 -33 45 -42 86 -11 51 10 30 30 -30z m-165 -44
c0 -24 -4 -47 -10 -50 -6 -4 -10 15 -10 50 0 35 4 54 10 50 6 -3 10 -26 10
-50z m-2071 -126 c66 -14 101 -47 101 -94 0 -25 -8 -44 -25 -61 l-25 -25 30
-44 c45 -65 38 -85 -28 -85 -21 0 -33 10 -53 41 l-26 41 -7 -42 c-6 -40 -7
-41 -44 -38 l-37 3 -3 144 c-2 97 1 148 9 157 14 17 41 18 108 3z m413 -124
c32 -71 57 -139 55 -150 -2 -17 -9 -20 -51 -20 -47 0 -50 1 -61 35 -9 26 -18
36 -37 38 -21 3 -27 -3 -42 -42 -18 -48 -31 -54 -83 -40 -31 8 -29 22 13 107
68 133 81 162 89 185 5 18 13 22 33 20 22 -3 33 -19 84 -133z m269 124 c113
-34 109 -164 -5 -186 -40 -8 -41 -9 -46 -58 l-5 -50 -40 0 -40 0 0 145 0 145
35 6 c55 10 60 10 101 -2z m669 -18 c90 -45 94 -201 7 -263 -36 -26 -116 -35
-157 -18 -97 40 -126 167 -61 268 26 42 140 49 211 13z m279 18 c66 -14 101
-47 101 -94 0 -26 -7 -43 -27 -61 l-26 -25 32 -46 c39 -55 33 -76 -20 -81 -30
-2 -37 2 -60 39 l-27 42 -7 -42 c-7 -41 -8 -42 -43 -39 l-37 3 -3 144 c-2 97
1 148 9 157 14 17 41 18 108 3z m893 0 c23 -12 23 -57 1 -81 -9 -11 -11 -18
-5 -18 7 0 12 -15 12 -35 0 -34 -28 -63 -49 -50 -18 10 -41 -27 -41 -64 0 -21
-6 -43 -13 -49 -15 -12 -58 -5 -69 12 -4 6 -8 74 -8 151 l0 140 77 2 c43 1 86
-3 95 -8z m634 -3 c12 -8 38 -40 59 -70 21 -31 42 -56 46 -56 5 0 9 28 11 63
l3 62 44 3 c24 2 48 -1 52 -5 8 -8 -13 -289 -22 -297 -8 -8 -34 -8 -54 -1 -11
3 -40 34 -65 68 l-45 62 -5 -60 -5 -60 -35 -3 c-55 -6 -60 11 -53 157 7 151
18 173 69 137z m-2152 -2 c11 -4 16 -19 16 -45 0 -32 -4 -39 -19 -39 -18 0
-20 -7 -18 -112 l2 -113 -39 -2 c-22 -1 -45 2 -51 7 -6 5 -10 37 -9 77 4 101
-6 138 -36 138 -19 0 -25 7 -31 34 -12 57 -6 61 86 61 46 0 90 -3 99 -6z m992
-19 c28 -18 31 -41 7 -67 -19 -21 -43 -23 -63 -6 -8 7 4 -7 27 -32 26 -29 44
-59 48 -82 6 -33 3 -41 -23 -68 -21 -21 -40 -30 -62 -30 -48 0 -96 27 -111 62
-11 28 -11 33 10 49 30 24 36 24 61 -3 36 -39 33 -10 -4 33 -46 54 -50 106
-10 146 21 21 32 24 61 20 19 -4 46 -13 59 -22z m713 11 c8 -9 11 -59 9 -152
l-3 -139 -33 -3 c-58 -6 -62 5 -62 158 0 75 3 140 7 143 12 12 70 7 82 -7z
m275 8 c11 -4 16 -19 16 -45 0 -33 -3 -39 -21 -39 -20 0 -21 -3 -14 -94 10
-126 6 -134 -53 -132 l-47 1 -1 103 c-1 56 -4 106 -8 110 -4 3 -17 7 -28 7
-16 0 -24 9 -30 34 -15 56 -8 61 86 61 46 0 91 -3 100 -6z m680 0 c21 -8 20
-52 -1 -76 -9 -11 -11 -18 -5 -18 7 0 12 -15 12 -35 0 -37 -25 -60 -53 -49
-17 6 -57 -12 -57 -26 0 -5 24 -10 53 -12 51 -3 52 -4 55 -37 4 -42 -8 -51
-74 -51 -72 0 -112 9 -119 29 -8 20 -7 259 1 272 6 10 163 13 188 3z m249 -3
c13 -5 31 -17 41 -26 15 -15 15 -19 -1 -46 -18 -30 -57 -40 -66 -16 -4 9 -6 9
-6 0 -1 -7 8 -17 20 -23 29 -16 59 -70 59 -106 0 -46 -39 -84 -87 -84 -47 0
-100 31 -114 67 -9 24 -7 30 11 45 29 23 47 23 62 -2 7 -11 16 -20 20 -20 15
0 8 17 -17 42 -87 88 -31 210 78 169z m280 0 c13 -5 31 -17 41 -26 15 -15 15
-19 -1 -46 -17 -29 -63 -42 -63 -17 0 6 -3 8 -7 4 -5 -4 -1 -13 7 -19 36 -28
70 -80 70 -107 0 -16 -11 -42 -26 -59 -20 -24 -34 -31 -62 -31 -45 0 -98 31
-114 66 -11 23 -10 29 11 45 30 25 46 24 65 -3 9 -12 19 -19 23 -15 3 4 -5 20
-20 35 -51 54 -61 119 -22 157 25 26 57 31 98 16z m-2371 -646 l238 -146 152
94 c333 204 322 199 363 195 35 -3 24 -11 -239 -172 l-276 -168 -32 19 c-69
41 -484 296 -503 309 -18 13 -16 14 20 14 34 0 77 -23 277 -145z m139 74 l99
-61 100 62 c83 51 105 61 136 58 37 -3 35 -4 -99 -86 l-137 -83 -135 81 c-74
45 -135 83 -135 86 0 2 16 4 36 4 28 0 62 -16 135 -61z"/>
<path d="M510 1472 c0 -15 5 -19 20 -15 24 6 21 26 -3 31 -11 2 -17 -3 -17
-16z"/>
<path d="M1173 1484 c-7 -19 2 -28 22 -21 19 8 19 23 0 31 -9 3 -18 -1 -22
-10z"/>
<path d="M1744 1464 c-38 -56 -10 -124 51 -124 35 0 58 19 75 64 15 39 5 62
-32 75 -50 18 -76 13 -94 -15z"/>
<path d="M2140 1476 c0 -10 9 -16 21 -16 24 0 21 23 -4 28 -10 2 -17 -3 -17
-12z"/>
<path d="M4110 1480 c0 -5 12 -10 28 -9 24 0 25 1 7 9 -27 12 -35 12 -35 0z"/>
</g>
</svg>
